<svg width="640" height="440" viewBox="0 0 640 440" fill="none" xmlns="http://www.w3.org/2000/svg">
<path d="M0.5 16C0.5 7.4396 7.43959 0.5 16 0.5H624C632.56 0.5 639.5 7.43959 639.5 16V424C639.5 432.56 632.56 439.5 624 439.5H16C7.43957 439.5 0.5 432.56 0.5 424V16Z" fill="#707070" stroke="#FEBE08"/>
<path d="M582.108 292.366C580.818 290.821 580.278 288.784 580.634 286.802C580.99 284.821 582.206 283.099 583.954 282.1L579.501 258.339L591.083 263.205L593.536 285.023C595.052 288.139 593.999 291.897 591.084 293.77C588.168 295.644 584.312 295.041 582.108 292.366Z" fill="#FFB6B6"/>
<rect x="45.4939" y="21.9395" width="508.643" height="241.27" fill="#161616"/>
<rect x="60.0333" y="42.6289" width="479.565" height="201.299" fill="#2B2A2D"/>
<rect x="45.2771" y="8" width="508.643" height="21.6006" fill="#FEBE08"/>
<circle cx="61.329" cy="17.9914" r="4.0036" fill="white"/>
<circle cx="76.5256" cy="17.9914" r="4.0036" fill="white"/>
<circle cx="91.7221" cy="17.9914" r="4.0036" fill="white"/>
<path d="M88.0681 172.52C86.9079 172.52 85.9673 173.461 85.9673 174.621C85.9673 175.781 86.9079 176.722 88.0681 176.722H203.346C204.506 176.722 205.447 175.781 205.447 174.621C205.447 173.461 204.506 172.52 203.346 172.52L88.0681 172.52Z" fill="#E6E6E6"/>
<path d="M88.0681 185.155C86.9079 185.155 85.9673 186.096 85.9673 187.256C85.9673 188.416 86.9079 189.357 88.0681 189.357L146.92 189.357C148.08 189.357 149.021 188.416 149.021 187.256C149.021 186.096 148.08 185.155 146.92 185.155L88.0681 185.155Z" fill="#E6E6E6"/>
<path d="M203.656 208.991H159.865C158.684 208.99 157.727 208.033 157.726 206.852V199.837C157.727 198.656 158.684 197.699 159.865 197.697H203.655C204.836 197.699 205.793 198.656 205.794 199.837L205.794 206.852C205.793 208.033 204.836 208.99 203.656 208.991Z" fill="#FEBE08"/>
<path d="M203.656 135.758H159.865C158.684 135.757 157.727 134.8 157.726 133.619V126.603C157.727 125.422 158.684 124.465 159.865 124.464H203.655C204.836 124.465 205.793 125.422 205.794 126.603L205.794 133.619C205.793 134.8 204.836 135.756 203.656 135.758Z" fill="#FEBE08"/>
<path d="M281.101 77.8345C279.587 77.8345 278.359 79.0618 278.359 80.5757C278.359 82.0897 279.587 83.317 281.101 83.317H510.371C511.885 83.317 513.112 82.0897 513.112 80.5757C513.112 79.0618 511.885 77.8345 510.371 77.8345H281.101Z" fill="#E6E6E6"/>
<path d="M281.036 94.4839C279.523 94.4839 278.295 95.7112 278.295 97.2252C278.295 98.7391 279.523 99.9665 281.036 99.9665H436.679C438.193 99.9665 439.42 98.7391 439.42 97.2252C439.42 95.7112 438.193 94.4839 436.679 94.4839L281.036 94.4839Z" fill="#E6E6E6"/>
<path d="M281.101 110.598C279.587 110.598 278.359 111.825 278.359 113.339C278.359 114.853 279.587 116.081 281.101 116.081L510.371 116.081C511.884 116.081 513.112 114.853 513.112 113.339C513.112 111.825 511.884 110.598 510.37 110.598H281.101Z" fill="#E6E6E6"/>
<path d="M281.036 127.086C279.523 127.086 278.295 128.313 278.295 129.827C278.295 131.341 279.523 132.569 281.036 132.569H436.679C438.193 132.569 439.42 131.341 439.42 129.827C439.42 128.313 438.193 127.086 436.679 127.086H281.036Z" fill="#E6E6E6"/>
<path d="M511.11 162.724H467.32C466.139 162.722 465.182 161.765 465.18 160.584V153.568C465.182 152.387 466.139 151.43 467.32 151.429H511.11C512.291 151.43 513.248 152.387 513.249 153.568L513.249 160.584C513.248 161.765 512.291 162.722 511.11 162.724Z" fill="#FEBE08"/>
<path d="M137.864 80.8037C137.086 80.8062 136.457 81.8165 136.458 83.0604C136.46 84.3008 137.088 85.3057 137.864 85.3082H204.282C205.06 85.3057 205.689 84.2954 205.688 83.0515C205.686 81.8111 205.057 80.8062 204.282 80.8037H137.864Z" fill="#E4E4E4"/>
<path d="M137.864 94.0537C137.086 94.0562 136.457 95.0665 136.458 96.3104C136.46 97.5508 137.088 98.5558 137.864 98.5582H204.282C205.06 98.5557 205.689 97.5454 205.688 96.3015C205.686 95.0611 205.057 94.0562 204.282 94.0537H137.864Z" fill="#E4E4E4"/>
<path d="M137.855 106.977C137.077 106.979 136.448 107.989 136.449 109.233C136.451 110.474 137.08 111.479 137.855 111.481H166.435C167.213 111.479 167.843 110.468 167.841 109.224C167.839 107.984 167.211 106.979 166.435 106.977H137.855Z" fill="#E4E4E4"/>
<circle cx="103.995" cy="96.0322" r="18.023" fill="#E4E4E4"/>
<path d="M477.671 154.275C477.413 156.271 478.052 158.28 479.417 159.76C480.782 161.24 482.732 162.039 484.743 161.943L493.751 184.376L500.906 174.051L491.255 154.331C490.861 150.887 487.953 148.283 484.488 148.269C481.022 148.255 478.094 150.835 477.671 154.275Z" fill="#FFB6B6"/>
<path d="M579.385 424.702H571.092L567.146 392.712L579.387 392.713L579.385 424.702Z" fill="#FFB6B6"/>
<path d="M581.501 432.742L554.758 432.741V432.402C554.758 426.654 559.418 421.994 565.167 421.994H565.168L581.501 421.994L581.501 432.742Z" fill="#161616"/>
<path d="M552.246 424.439L544.339 421.935L550.232 390.246L561.901 393.941L552.246 424.439Z" fill="#FFB6B6"/>
<path d="M551.759 432.742L526.264 424.67L526.366 424.348C528.101 418.867 533.95 415.831 539.431 417.565L555.003 422.496L551.759 432.742Z" fill="#161616"/>
<path d="M542.423 268.355C542.423 268.355 530.118 287.677 534.466 304.922C538.814 322.167 543.55 355.315 543.55 355.315L567.127 411.426L584.702 410.709L567.249 344.553L567.939 300.32C567.939 300.32 580.07 279.18 577.707 272.599C575.345 266.019 542.423 268.355 542.423 268.355Z" fill="#161616"/>
<path d="M582.626 275.263C582.626 275.263 584.14 294.431 579.404 302.549C574.669 310.667 569.624 341.564 569.624 341.564L561.575 403.359L544.903 397.934L559.119 328.7L570.293 274.24L582.626 275.263Z" fill="#161616"/>
<path d="M588.536 182.003L575.529 173.062L555.734 172.487L548.841 179.245L538.322 184.617L537.347 272.13C537.347 272.13 568.848 287.229 585.795 279.941L593.948 211.768C597.33 198.238 588.536 182.003 588.536 182.003Z" fill="#E6E6E6"/>
<path d="M540.88 207.891H506.184L483.389 168.654L498.211 162.783L510.764 185.112L528.932 183.468L540.276 182.919C543.956 182.741 547.527 184.197 550.034 186.896C552.541 189.595 553.729 193.264 553.28 196.92C552.505 203.181 547.188 207.885 540.88 207.891Z" fill="#E6E6E6"/>
<circle cx="567.246" cy="147.915" r="17.1625" fill="#FFB6B6"/>
<path d="M587.925 144.002C587.398 140.234 584.846 136.657 581.217 135.515C579.775 131.329 575.957 128.247 571.738 126.903C563.702 124.341 554.95 127.533 550.451 134.667C550.128 135.175 549.135 136.422 549.163 137.028C549.198 137.797 550.375 138.591 550.966 139.076C552.432 140.209 554.012 141.185 555.682 141.987C561.853 145.186 559.799 150.215 559.715 155.913C559.674 158.682 560.599 161.046 562.96 162.627C566.367 164.91 571.244 164.002 574.952 163.086C579.159 162.046 582.657 158.35 585.056 154.787C587.181 151.63 588.452 147.77 587.925 144.002Z" fill="#161616"/>
<path d="M588.045 204.382L594.723 277.635L573.267 276.484L588.045 204.382Z" fill="#E6E6E6"/>
<path d="M61.0204 426.665H67.4531L70.5136 401.852H61.019L61.0204 426.665Z" fill="#FFB6B6"/>
<path d="M59.3796 424.564L72.0482 424.563C76.5066 424.564 80.1218 428.178 80.1224 432.637L80.1224 432.899L59.3797 432.9L59.3796 424.564Z" fill="#161616"/>
<path d="M120.35 426.665H126.782L129.843 401.852H120.348L120.35 426.665Z" fill="#FFB6B6"/>
<path d="M118.79 424.564L131.459 424.564C135.917 424.564 139.532 428.178 139.533 432.637V432.9L118.79 432.901L118.79 424.564Z" fill="#161616"/>
<path d="M112.547 226.882L116.744 253.642L76.8657 254.167L82.1126 228.456L112.547 226.882Z" fill="#FFB6B6"/>
<path d="M115.587 247.55L128.288 281.369L129.863 421.524H119.106L93.3942 308.917L69.7817 418.585H59.2876L66.6337 295.275C66.6337 295.275 64.4674 270.525 75.5539 255.921L78.2525 248.124L115.587 247.55Z" fill="#161616"/>
<path d="M61.1061 273.475C63.3539 272.863 65.2148 271.286 66.1883 269.169C67.1617 267.053 67.1476 264.614 66.1498 262.508L83.1149 207.198L70.6365 204.725L55.1202 258.94C51.6179 260.894 50.1302 265.158 51.6573 268.866C53.1845 272.574 57.2437 274.554 61.1061 273.475Z" fill="#FFB6B6"/>
<path d="M83.4809 241.59C83.2481 241.59 83.0158 241.567 82.7875 241.522C81.2095 241.206 80.0351 239.878 79.915 238.273C79.5205 232.872 77.566 223.471 74.1057 210.331C71.7108 201.174 75.4081 191.508 83.3027 186.288C91.1972 181.067 101.539 181.449 109.027 187.237C113.752 190.857 116.795 196.25 117.449 202.166C119.169 217.311 115.927 232.517 114.453 238.352C114.055 239.917 112.662 241.025 111.047 241.059L83.5573 241.59C83.5316 241.59 83.5066 241.59 83.4809 241.59Z" fill="#E6E6E6"/>
<path d="M160.397 192.991C160.232 193.361 160.096 193.744 159.991 194.135L125.582 205.828L118.933 200.02L108.856 208.908L119.627 220.335C121.414 222.231 124.239 222.719 126.559 221.534L163.379 202.727C166.105 204.399 169.582 204.21 172.111 202.252C174.64 200.293 175.693 196.975 174.756 193.917C173.819 190.859 171.088 188.699 167.896 188.494C164.705 188.288 161.719 190.078 160.397 192.991Z" fill="#FFB6B6"/>
<path d="M124.267 206.461L111.724 217.417C111.001 218.048 110.04 218.333 109.091 218.198C108.142 218.064 107.298 217.522 106.78 216.716L97.8077 202.744C94.4917 198.925 94.8995 193.141 98.7187 189.825C102.538 186.509 108.322 186.917 111.638 190.736L124.237 201.468C124.967 202.09 125.39 202.999 125.396 203.958C125.401 204.917 124.989 205.831 124.267 206.461Z" fill="#E6E6E6"/>
<path d="M81.1329 221.272L65.6317 215.183C64.7392 214.832 64.0436 214.11 63.726 213.206C63.4084 212.301 63.5005 211.303 63.978 210.471L72.2486 196.073C74.1117 191.371 79.434 189.07 84.1361 190.933C88.8382 192.796 91.1396 198.118 89.2765 202.821L85.5514 218.946C85.3353 219.881 84.7233 220.674 83.8748 221.121C83.0263 221.568 82.0254 221.623 81.1329 221.272Z" fill="#E6E6E6"/>
<circle cx="92.6239" cy="162.241" r="16.8614" fill="#FFB6B6"/>
<path d="M104.223 155.457C107.84 155.436 111.458 155.416 115.076 155.396C115.333 152.93 114.236 150.477 112.637 148.583C110.952 146.76 109.03 145.171 106.923 143.859C104.848 142.435 102.699 140.979 100.232 140.481C98.1641 140.064 96.0269 140.353 93.938 140.644C91.1677 141.029 88.3974 141.414 85.6273 141.8C82.5864 142.222 79.4047 142.701 76.935 144.524C73.5948 146.991 72.3172 151.312 71.244 155.323L65.3032 177.522L100.393 181.203C101.663 181.422 102.963 181.384 104.217 181.092C105.494 180.771 106.457 179.719 106.663 178.418C106.764 176.987 105.628 175.816 104.706 174.717C100.204 169.138 99.6108 161.359 103.215 155.162L104.223 155.457Z" fill="#161616"/>
</svg>
